<svg width="104" height="63" viewBox="0 0 104 63" fill="none" xmlns="http://www.w3.org/2000/svg">
<path d="M15.2344 35.6589C18.1488 35.6589 20.4413 38.0185 20.4414 41.6902C20.4414 45.3445 17.4407 47.405 17.4121 47.4246C17.9192 48.1345 18.4055 48.7637 18.8721 49.325C18.8721 49.325 21.2867 47.4044 21.6113 45.3826L26.1553 48.7292H26.1484C26.1484 48.7292 24.9247 51.6847 22.957 53.0642C24.9111 54.1865 25.8984 53.6189 25.8984 53.6189L25.0264 59.157C21.0085 59.157 19.2999 57.5746 19.2783 57.5544C17.5744 59.3598 15.7688 59.9138 13.3955 59.9138C11.022 59.9138 6.34277 57.608 6.34277 52.8611C6.34291 48.1285 10.483 46.3133 10.5078 46.3025C9.4603 45.255 9.40598 42.3268 9.40527 42.2859C9.40527 37.9312 12.32 35.659 15.2344 35.6589ZM83.707 35.6853C83.7327 35.6846 91.3143 35.489 91.3145 43.1169C91.3145 46.5994 89.9278 48.7633 88.4131 50.0886C88.4131 50.0886 90.4419 51.4547 92.7139 56.2351V35.7058H101.579V41.8455H97.9004V45.1931H100.943V49.9265H97.9004V53.7673H101.579V59.907H92.7139V59.8933L88.4131 59.9138C88.3894 59.8667 85.7108 54.5491 84.6201 53.9294V59.8933H77.9258V35.6853H83.707ZM37.6572 46.3562L41.8564 35.6794H48.0977V59.8943H41.7891V51.1707L39.6855 59.8943H35.6289L33.5322 51.1707V59.8943H27.2236V35.6794H33.458L37.6572 46.3562ZM51.6279 44.4558C45.2924 40.1618 52.5885 31.9062 57.7344 37.6335C58.6607 37.2887 59.6006 36.903 60.5742 36.7136C62.2174 36.389 63.8812 36.3823 65.5244 36.7136C66.4981 36.9097 67.4107 37.3564 68.3506 37.6404C70.0005 35.5982 72.8208 35.0228 75.0117 36.5984H75.0186C75.4919 36.9366 76.195 37.8905 76.4316 38.4314C77.5065 40.8993 76.4923 42.9549 74.4639 44.4695C76.5195 50.4471 73.4358 56.6889 67.6475 58.9812C63.8202 60.5026 59.4852 60.117 56.0771 57.8044C51.8984 54.9711 49.8022 49.2568 51.6279 44.4558ZM68.0664 54.2673C68.438 50.5891 65.5174 48.4254 62.0352 48.8513L62.042 48.8445C59.9796 49.0947 58.0588 51.083 57.8965 53.1589C57.43 59.1433 67.5728 59.1901 68.0664 54.2673ZM61.0947 50.8396C61.1623 49.6698 64.6243 49.5614 65.0098 50.8259C64.7123 51.7183 63.9822 52.2591 63.1709 52.6648V55.363C63.2858 55.7619 64.3264 55.181 64.5635 55.0388C64.8948 54.836 65.0508 54.3755 65.5039 54.4431C64.6654 56.4447 61.6493 56.3433 60.4795 54.6257C60.3446 54.315 60.8584 54.4502 61.0342 54.5583C61.2111 54.6676 62.8057 56.1268 62.8057 55.363V52.6648C62.2918 52.347 61.0545 51.482 61.0947 50.8396ZM12.8203 50.9607C12.6648 51.1433 12.4553 51.4348 12.293 51.8337C12.043 52.4486 12.05 52.9823 12.0635 53.199C12.0838 53.5776 12.117 54.146 12.5225 54.6531C13.0902 55.356 13.9827 55.4169 14.1523 55.4304H14.1455C15.3289 55.5116 16.1204 54.6801 16.2354 54.5583C15.6944 54.1256 15.1058 53.6052 14.5107 52.9832C13.8278 52.2799 13.2734 51.5896 12.8203 50.9607ZM5.02441 42.1033C5.79191 45.6635 8.69599 45.7607 8.72266 45.7615C6.05179 45.7616 5.02441 49.2371 5.02441 49.2371C5.02441 49.2371 3.99618 45.7615 1.3252 45.7615C1.33502 45.7612 4.25473 45.6741 5.02441 42.1033ZM67.6748 45.6531C65.3555 45.7816 66.0312 49.4865 68.1611 48.8376C70.0341 48.2629 69.4936 45.5587 67.6748 45.6531ZM58.2275 45.6667C56.9093 45.7212 56.1454 47.4381 57.085 48.405C57.5177 48.8446 58.3225 49.0067 58.8838 48.7498C60.5202 48.0059 59.9721 45.5991 58.2275 45.6667ZM84.6201 45.9773C86.0602 45.8419 87.1824 44.6252 87.1826 43.1716C87.1826 41.7179 86.0671 40.4936 84.6201 40.365V45.9773ZM14.8018 39.7224C14.7274 39.7224 14.1664 39.7363 13.7607 40.1755C13.4566 40.4999 13.4089 40.8785 13.3818 41.1287L13.3887 41.1355C13.3481 41.5277 13.4152 41.8596 13.6045 42.4343C13.76 42.9076 14.0041 43.5429 14.3691 44.2664C14.8221 43.7255 15.1669 43.2456 15.4238 42.8738C16.1201 41.8598 16.2011 41.508 16.2012 41.197C16.2012 41.0145 16.1947 40.5884 15.8906 40.2166C15.485 39.7231 14.8832 39.7224 14.8018 39.7224ZM74.3828 41.2107C75.2078 38.8643 72.1847 37.0649 70.4062 38.7146L70.4541 39.0125C71.5562 39.9252 72.7728 40.9939 73.3408 42.3123H73.3477C73.6721 42.5353 74.2878 41.4884 74.3828 41.2107ZM55.6924 38.9382C55.3611 38.0863 53.9684 38.0191 53.2109 38.1746V38.1804C51.7843 38.4712 51.1956 40.3647 51.8242 41.5886C51.9121 41.7644 52.3044 42.2783 52.46 42.3054C52.6492 42.3392 53.6902 40.7246 53.9746 40.4128C54.4818 39.8448 55.0567 39.3642 55.6924 38.9382ZM20.3398 32.6296C20.7795 34.6917 22.4707 34.739 22.4707 34.739C20.9406 34.739 20.3486 36.7171 20.3398 36.7468C20.329 36.7101 19.7374 34.739 18.21 34.739C18.21 34.739 19.8934 34.6916 20.3398 32.6296ZM13.0439 7.75171C13.0899 7.75054 21.1309 7.55897 21.1309 15.657C21.1306 23.7659 14.0317 25.1665 14.0107 25.1707L14.0176 25.1775V33.5085H6.89746V7.75171H13.0439ZM28.1572 27.5173H40.707V33.5085H22.4697V7.75171H28.1572V27.5173ZM49.2275 7.76538C52.2392 7.76538 54.8832 10.4787 54.9141 10.5105L51.4521 16.0964C50.5257 15.5081 49.8361 15.3386 49.4912 15.3386C49.2612 15.3386 48.7741 15.3866 48.4834 15.7449C48.2472 16.0354 48.2471 16.3933 48.2471 16.4949C48.2674 17.1101 48.7406 17.5566 49.0449 17.8406C49.1328 17.9217 49.1062 17.8882 49.6201 18.3142C49.8701 18.5237 50.0796 18.6993 50.2148 18.8142C50.2148 18.8142 50.7833 19.2538 51.5068 19.8962C51.522 19.9098 52.5671 20.8444 53.3525 21.9587C53.7245 22.4862 55.002 24.3056 54.9209 26.8279C54.9006 27.3698 54.8128 29.932 52.7578 31.8113C51.3581 33.0893 50.9247 33.5085 47.6992 33.5085C44.4738 33.5084 41.2549 30.4988 41.2549 30.4988L44.332 25.1843C45.2997 27.6572 46.9685 27.9127 46.9893 27.9158L46.9824 27.9226C46.9824 27.9226 48.4971 28.193 48.4971 26.7527C48.4969 25.3125 47.2803 24.0955 47.2803 24.0955C47.2733 24.0885 46.1842 22.9191 45.5283 22.155C44.6832 21.1746 44.0205 20.4037 43.4863 19.4031C43.1888 18.8418 42.3714 17.2724 42.3984 15.1423C42.4052 14.324 42.4727 12.4173 43.8047 10.6052C45.1841 8.71873 47.3545 7.76542 49.2275 7.76538ZM61.751 17.8474H63.9482V7.75171H69.4658V33.5085H63.9482V23.4128H61.751V33.5085H56.2393V7.75171H61.751V17.8474ZM76.6348 33.5085H71.123V7.75171H76.6348V33.5085ZM87.1357 14.2839H83.2207V17.8474H86.46V22.8855H83.2207V26.9763H87.1357V33.5085H77.7021V7.75171H87.1357V14.2839ZM95.8789 7.75854C98.9083 7.75854 101.566 10.5037 101.566 10.5037L98.1035 16.0896C97.1772 15.5014 96.4874 15.3318 96.1426 15.3318C95.9125 15.3318 95.4264 15.3798 95.1357 15.738C94.8993 16.0286 94.8984 16.3864 94.8984 16.488C94.9187 17.1032 95.392 17.5497 95.6963 17.8337C95.7842 17.9149 95.7576 17.8814 96.2715 18.3074C96.5215 18.5168 96.731 18.6924 96.8662 18.8074C96.8662 18.8074 97.4347 19.247 98.1582 19.8894C98.1664 19.8967 99.2158 20.8338 100.004 21.9519L99.9971 21.9587C100.369 22.4862 101.648 24.3056 101.566 26.8279C101.546 27.3698 101.457 29.932 99.4023 31.8113C98.0026 33.0893 97.5692 33.5085 94.3438 33.5085C91.1227 33.5083 87.909 30.5068 87.9004 30.4988L90.9766 25.1843C91.9413 27.6496 93.603 27.9111 93.6338 27.9158C93.6338 27.9158 95.1484 28.1862 95.1484 26.7458C95.1482 25.3057 93.9316 24.0886 93.9316 24.0886C93.9173 24.0737 92.8343 22.9096 92.1807 22.1482C91.3355 21.1678 90.6728 20.3968 90.1387 19.3962C89.8411 18.835 89.0228 17.2655 89.0498 15.1355C89.0566 14.3171 89.1241 12.4104 90.4561 10.5984C91.8354 8.71192 94.0059 7.75864 95.8789 7.75854ZM33.5059 19.9636C33.5059 20.748 34.1414 21.3835 34.9258 21.3835C35.7102 21.3835 36.3457 20.748 36.3457 19.9636V7.75171H40.2881V21.3835C40.2881 21.5458 40.2811 21.7154 40.2676 21.8777C40.0173 24.6095 37.7185 26.7458 34.9258 26.7458H34.9189C32.1263 26.7458 29.8342 24.6094 29.584 21.8777C29.5705 21.7154 29.5635 21.5526 29.5635 21.3835V7.75171H33.5059V19.9636ZM14.0107 18.6931C15.5457 18.5579 16.7353 17.2524 16.7354 15.7107C16.7354 14.1689 15.5457 12.8635 14.0107 12.7283V18.6931ZM89.7529 2.19312C90.5188 5.74683 93.4133 5.85012 93.4512 5.85132C90.7952 5.85164 89.7643 9.28886 89.7529 9.3269C89.7441 9.29728 88.7132 5.85132 86.0537 5.85132C86.0537 5.85132 88.9821 5.77024 89.7529 2.19312Z" fill="#C0424E"/>
</svg>
